<?xml version="1.0" standalone="no"?>
<!DOCTYPE svg PUBLIC "-//W3C//DTD SVG 20010904//EN"
 "http://www.w3.org/TR/2001/REC-SVG-20010904/DTD/svg10.dtd">
<svg version="1.0" xmlns="http://www.w3.org/2000/svg"
 width="2928.000000pt" height="2928.000000pt" viewBox="0 0 2928.000000 2928.000000"
 preserveAspectRatio="xMidYMid meet">
<metadata>
Created by potrace 1.14, written by Peter Selinger 2001-2017
</metadata>
<g transform="translate(0.000000,2928.000000) scale(0.100000,-0.100000)"
fill="#000000" stroke="none">
<path d="M14607 28684 c-1 -1 -27 -5 -57 -9 -86 -11 -228 -60 -310 -109 -215
-126 -358 -331 -410 -586 -10 -52 -14 -57 -63 -86 -41 -24 -647 -395 -1237
-757 -41 -25 -131 -80 -200 -122 -69 -41 -168 -102 -220 -135 -52 -33 -104
-65 -115 -70 -11 -6 -32 -18 -47 -28 -51 -32 -483 -297 -503 -308 -11 -6 -58
-35 -105 -64 -99 -62 -245 -152 -570 -350 -129 -78 -257 -157 -285 -175 -27
-17 -95 -59 -150 -92 -55 -33 -161 -98 -235 -144 -74 -45 -171 -105 -215 -132
-44 -26 -87 -52 -95 -57 -8 -6 -84 -53 -169 -105 -84 -52 -155 -95 -157 -95
-3 0 -28 -15 -57 -34 -28 -18 -162 -101 -297 -183 -135 -83 -468 -287 -740
-453 -272 -167 -547 -335 -610 -373 -63 -38 -131 -80 -150 -92 -19 -12 -89
-55 -155 -95 -66 -40 -136 -83 -155 -95 -19 -12 -147 -91 -285 -175 -137 -84
-306 -187 -375 -230 -142 -87 -545 -334 -647 -396 -37 -23 -419 -256 -848
-519 -429 -263 -816 -500 -860 -526 l-80 -48 -65 12 c-156 29 -341 4 -495 -67
-305 -141 -495 -436 -496 -771 0 -112 8 -166 43 -272 38 -116 98 -218 179
-307 l64 -69 0 -5935 0 -5934 -30 -21 c-204 -140 -344 -366 -372 -597 -33
-276 54 -531 246 -720 172 -170 384 -253 626 -245 55 2 114 6 130 10 59 12
138 37 190 59 l52 24 194 -118 c107 -64 277 -168 379 -230 102 -62 199 -120
215 -130 17 -9 273 -165 570 -345 576 -350 939 -570 983 -596 15 -9 257 -155
537 -326 281 -170 683 -415 895 -543 212 -128 419 -253 460 -279 71 -44 440
-268 498 -302 57 -33 598 -362 622 -377 14 -9 34 -22 45 -28 34 -19 530 -320
587 -356 29 -19 60 -37 68 -41 8 -4 29 -16 45 -26 109 -67 306 -187 335 -203
19 -11 54 -33 78 -49 24 -16 45 -29 47 -29 1 0 189 -113 417 -251 227 -139
429 -261 449 -273 19 -12 124 -75 232 -141 108 -66 227 -138 265 -160 37 -22
78 -47 92 -57 14 -9 43 -27 66 -40 32 -18 204 -122 344 -208 17 -11 173 -105
668 -405 l331 -200 11 -45 c31 -121 120 -269 223 -372 257 -254 659 -318 979
-157 211 106 379 307 438 523 l17 60 139 86 c472 293 784 486 1199 743 173
107 235 145 267 168 15 11 30 19 33 19 4 0 25 12 48 28 23 15 51 32 62 39 63
37 226 140 262 164 23 16 44 29 46 29 3 0 104 61 224 136 273 170 345 215 563
350 96 59 274 169 395 244 121 75 333 206 470 291 138 85 273 169 300 187 28
17 66 41 85 52 19 11 87 53 151 93 64 39 236 146 382 237 147 91 285 176 307
190 22 14 88 55 148 91 59 36 370 229 692 429 322 200 650 403 730 452 80 50
192 119 250 155 58 36 117 73 132 82 15 9 173 106 350 216 177 110 363 225
413 256 49 30 306 189 570 353 264 165 494 307 511 316 17 10 70 43 118 74 48
31 89 56 91 56 2 0 38 21 78 48 78 49 151 95 277 172 l75 46 45 -14 c118 -36
291 -47 410 -27 60 10 199 60 258 92 230 126 397 365 436 625 7 45 9 205 3
233 -3 11 -8 40 -12 65 -20 119 -96 274 -191 386 l-54 63 0 2129 0 2128 38 22
c37 21 54 34 122 95 239 215 333 581 229 890 -75 223 -235 404 -444 503 -134
64 -231 84 -390 80 -234 -6 -399 -76 -572 -239 l-72 -69 -2868 1 c-1577 0
-2890 0 -2918 1 -50 1 -50 1 -84 57 -100 165 -302 310 -501 362 -289 74 -597
-9 -810 -219 -115 -113 -189 -242 -231 -402 -33 -124 -31 -310 5 -433 46 -154
113 -269 223 -379 37 -37 89 -82 116 -99 49 -32 52 -40 38 -97 -16 -59 -87
-329 -114 -430 -36 -134 -308 -1162 -313 -1180 -13 -53 -117 -444 -129 -485
-8 -27 -17 -59 -19 -70 -2 -11 -59 -227 -126 -479 -67 -253 -124 -467 -126
-475 -2 -9 -13 -52 -25 -96 -11 -44 -23 -87 -25 -95 -2 -8 -13 -49 -24 -90
-11 -41 -22 -83 -25 -92 -2 -9 -16 -61 -30 -115 -15 -54 -48 -181 -75 -283
-27 -102 -69 -261 -94 -355 -25 -93 -66 -246 -90 -340 -42 -159 -81 -305 -142
-535 -14 -52 -32 -122 -40 -155 -8 -33 -21 -80 -28 -105 -8 -25 -38 -135 -67
-245 -78 -300 -225 -854 -300 -1135 -22 -80 -41 -154 -44 -165 -2 -11 -9 -36
-14 -55 -18 -65 -23 -84 -88 -330 -36 -135 -67 -253 -69 -263 -2 -9 -6 -26 -8
-37 -3 -11 -7 -24 -10 -28 -3 -5 -7 -19 -9 -33 -3 -13 -19 -76 -36 -139 -16
-63 -37 -140 -45 -170 -42 -162 -212 -802 -241 -910 -56 -206 -186 -701 -190
-718 -2 -10 -15 -60 -30 -112 -15 -52 -42 -153 -60 -225 -39 -151 -116 -442
-141 -533 -9 -34 -19 -60 -21 -58 -5 5 -4 443 12 3696 3 674 8 1686 10 2250 6
1296 22 4759 24 5285 l1 111 78 18 c252 58 474 241 582 480 81 178 97 405 41
584 l-19 63 41 26 c59 37 1017 637 1107 693 222 138 1052 657 1095 685 28 18
154 97 280 175 127 79 262 163 300 187 231 145 284 178 315 198 19 13 134 85
255 160 121 76 372 232 557 349 186 116 364 227 395 247 136 84 2283 1428
2648 1657 220 138 434 272 475 297 41 26 112 70 158 98 298 187 1181 740 1324
830 125 78 179 106 193 102 104 -32 191 -46 287 -47 58 0 119 3 135 6 15 4 37
8 48 10 61 12 190 63 259 104 125 74 257 216 325 349 90 178 111 410 56 617
-86 324 -395 583 -730 614 -150 13 -373 -23 -453 -74 -22 -14 -46 0 -545 312
-287 180 -544 341 -572 358 -27 17 -52 34 -55 37 -3 3 -10 8 -16 10 -6 2 -146
90 -312 194 -166 105 -312 196 -324 203 -13 7 -42 25 -66 40 -23 15 -178 112
-345 216 -166 104 -324 203 -352 221 -52 33 -153 97 -1340 840 -385 241 -770
483 -855 536 -85 54 -198 124 -250 156 -52 32 -99 61 -105 66 -5 4 -118 75
-250 157 -277 172 -277 172 -370 232 -81 52 -533 335 -573 359 -15 9 -106 66
-202 126 -470 295 -1183 741 -1250 783 -123 76 -511 320 -565 354 -52 33 -337
213 -520 326 -57 36 -108 70 -114 75 -5 6 -12 30 -15 55 -48 370 -362 681
-731 725 -48 6 -175 12 -178 9z m-414 -1563 c60 -41 178 -96 239 -111 l46 -12
-3 -751 c-4 -944 -16 -3517 -18 -3899 -1 -157 -4 -288 -7 -290 -3 -2 -30 -10
-60 -17 -84 -20 -190 -67 -264 -116 l-66 -45 -23 38 c-29 45 -156 253 -178
290 -9 15 -65 108 -126 207 -60 99 -192 315 -293 480 -101 165 -210 345 -244
400 -34 55 -65 107 -71 117 -5 10 -48 80 -94 155 -47 76 -157 257 -246 403
-89 146 -209 341 -266 435 -57 93 -108 178 -114 187 -14 25 -131 217 -450 738
-153 250 -280 462 -282 470 -2 9 10 23 32 35 49 27 467 283 583 356 51 32 95
59 98 59 3 0 17 9 32 19 26 18 225 140 792 486 151 92 291 178 310 190 19 13
143 88 274 169 l240 145 55 -52 c31 -29 78 -68 104 -86z m1277 5 c80 -50 153
-95 162 -101 10 -5 100 -62 201 -125 100 -63 252 -159 337 -212 85 -54 160
-102 167 -108 7 -5 14 -10 17 -10 2 0 92 -55 198 -122 106 -67 255 -160 330
-207 76 -47 303 -189 504 -316 201 -126 378 -237 393 -245 14 -8 40 -25 58
-37 17 -13 33 -23 36 -23 3 0 34 -19 69 -42 35 -24 75 -50 90 -58 14 -8 262
-163 552 -345 289 -181 554 -347 589 -368 98 -60 97 -58 30 -108 -79 -60 -417
-322 -423 -329 -3 -3 -32 -25 -65 -50 -33 -25 -66 -51 -75 -57 -24 -20 -802
-623 -834 -646 -15 -12 -42 -33 -60 -47 -27 -23 -317 -248 -431 -336 -110 -84
-857 -663 -905 -701 -54 -42 -459 -356 -516 -400 -16 -12 -123 -96 -239 -185
-115 -90 -241 -187 -278 -216 l-68 -52 -41 52 c-104 134 -237 230 -390 283
-53 19 -78 33 -79 44 -2 36 -1 382 6 1676 5 1207 13 2832 15 3141 l0 112 70
17 c121 30 275 115 360 198 41 41 21 48 220 -77z m-3865 -1394 c5 -12 13 -22
17 -22 5 0 8 -4 8 -10 0 -5 59 -105 131 -222 73 -117 140 -226 149 -243 34
-58 243 -400 260 -425 9 -14 20 -32 23 -40 4 -8 15 -27 25 -42 27 -42 106
-172 112 -183 3 -6 52 -87 109 -180 57 -94 123 -201 147 -240 24 -38 58 -95
77 -125 19 -30 123 -201 232 -380 108 -179 234 -386 280 -460 82 -133 321
-527 570 -935 70 -115 155 -254 188 -308 l60 -98 -30 -32 c-53 -57 -98 -123
-134 -196 -31 -65 -36 -71 -59 -66 -21 5 -875 287 -2455 810 -1425 472 -2760
914 -3072 1017 -205 67 -373 125 -373 128 0 4 398 252 509 316 20 12 144 88
276 169 132 81 310 191 395 243 85 52 193 118 240 147 47 29 198 121 335 205
138 84 306 187 375 230 133 82 1398 856 1439 881 13 8 49 31 80 51 62 41 71
42 86 10z m7905 -1137 c69 -43 184 -115 255 -160 113 -71 625 -392 1220 -764
99 -62 214 -135 255 -162 41 -27 82 -52 90 -57 9 -4 188 -115 398 -247 210
-132 395 -247 410 -256 15 -9 252 -158 527 -330 275 -173 611 -384 747 -469
136 -85 273 -172 305 -192 32 -21 65 -41 73 -45 8 -3 48 -28 88 -55 40 -26 74
-48 77 -48 2 0 25 -14 50 -31 31 -21 44 -36 41 -47 -8 -29 -15 -75 -22 -132
-3 -30 -8 -57 -10 -60 -3 -2 -96 -5 -207 -7 -414 -4 -1477 -14 -1922 -18 -253
-2 -698 -7 -990 -10 -291 -3 -750 -8 -1020 -10 -269 -3 -713 -7 -985 -10 -272
-3 -724 -7 -1005 -10 -280 -2 -755 -7 -1055 -10 -300 -3 -741 -8 -981 -10
l-436 -4 -14 42 c-7 23 -19 53 -26 67 -19 37 -17 45 25 76 20 16 44 34 52 41
8 7 94 73 190 148 343 265 480 371 955 740 158 123 1103 855 1179 914 54 42
115 90 136 106 21 17 82 64 136 106 125 96 689 533 729 565 17 13 152 118 300
233 245 190 272 209 290 197 11 -7 76 -48 145 -91z m-11155 -1373 c308 -101
686 -226 840 -277 243 -81 1603 -530 2365 -781 2436 -805 2170 -716 2170 -725
0 -4 -170 -8 -377 -9 -208 -1 -488 -4 -623 -5 -135 -2 -542 -6 -905 -10 -363
-3 -838 -8 -1055 -10 -916 -9 -1534 -16 -1990 -20 -267 -3 -714 -7 -995 -10
-280 -3 -751 -7 -1045 -10 -294 -3 -719 -8 -945 -10 -379 -4 -898 -7 -936 -6
-12 1 -20 17 -28 59 -6 31 -23 84 -36 117 -14 33 -21 62 -17 66 4 3 72 45 152
94 80 48 172 105 205 125 33 21 159 98 280 172 121 74 393 241 605 370 212
130 552 338 755 463 204 125 384 235 400 245 92 54 561 343 570 351 5 5 18 6
30 3 11 -4 272 -90 580 -192z m15765 -2100 c21 -41 60 -101 85 -133 26 -33 46
-61 44 -63 -6 -4 -206 -129 -237 -147 -30 -18 -594 -371 -687 -430 -33 -21
-157 -99 -275 -173 -118 -74 -311 -194 -428 -268 -117 -73 -228 -142 -246
-153 -18 -11 -188 -117 -377 -235 -189 -118 -350 -213 -359 -212 -16 4 -801
223 -885 247 -77 23 -334 95 -391 110 -27 8 -165 46 -305 85 -469 132 -644
181 -719 202 -41 11 -104 29 -140 39 -36 11 -227 64 -425 119 -198 55 -389
109 -425 119 -68 20 -1034 290 -1060 297 -8 2 -136 37 -285 79 -148 42 -308
87 -355 100 -47 13 -191 54 -320 90 -129 36 -257 72 -285 80 -27 7 -108 30
-180 50 -71 20 -137 39 -145 41 -8 1 -76 20 -150 41 l-135 39 3 29 c2 17 5 31
6 32 1 1 240 5 532 8 291 2 738 7 994 10 256 3 717 7 1025 10 308 3 778 8
1045 10 267 3 712 7 990 10 654 6 1454 14 1995 20 237 2 729 7 1095 10 366 4
666 7 667 8 1 1 67 2 148 2 l146 0 39 -73z m-10366 -74 c50 -309 332 -602 646
-669 l48 -10 -4 -1022 c-3 -562 -7 -1023 -9 -1025 -2 -2 -106 24 -232 58 -289
77 -449 120 -493 131 -45 12 -35 10 -235 64 -93 25 -177 48 -185 50 -16 3
-189 50 -345 92 -179 48 -202 55 -335 89 -74 19 -166 44 -205 55 -38 11 -122
34 -185 50 -249 66 -527 140 -556 150 -17 5 -40 11 -50 13 -10 3 -155 41 -322
86 -167 45 -311 83 -320 85 -9 3 -57 15 -107 29 -503 136 -612 165 -860 230
-49 13 -126 34 -170 46 -44 12 -87 23 -95 25 -8 2 -40 11 -70 19 -101 27 -735
198 -750 201 -8 2 -107 29 -220 60 -113 31 -215 58 -228 61 -12 2 -98 25 -190
50 -92 25 -210 56 -262 70 -52 14 -117 31 -145 39 -71 20 -277 76 -295 80 -8
2 -51 13 -95 25 -81 22 -155 41 -390 104 -71 19 -179 48 -240 64 -60 17 -137
38 -170 46 -126 35 -289 78 -304 81 -23 5 -719 193 -761 205 -41 12 -448 120
-470 125 -8 2 -42 11 -75 20 -83 23 -208 57 -220 59 -41 8 -56 19 -50 34 4 10
9 29 12 45 3 15 11 31 17 34 6 4 97 8 201 9 105 1 476 5 825 8 980 10 1389 15
3085 31 270 3 706 7 970 10 264 3 741 7 1060 10 319 3 762 8 985 10 223 2 697
7 1055 10 357 4 651 7 652 8 1 2 20 1 41 -1 38 -4 40 -6 46 -44z m1821 -134
c72 -20 153 -42 180 -49 28 -7 124 -34 214 -60 90 -26 171 -48 180 -50 9 -2
79 -22 156 -44 240 -68 968 -272 990 -277 10 -2 318 -89 420 -118 28 -8 149
-42 270 -76 121 -34 243 -68 270 -76 84 -24 527 -148 645 -180 109 -30 162
-45 640 -179 267 -75 575 -161 685 -192 110 -31 263 -74 340 -95 77 -22 178
-50 225 -63 47 -13 191 -54 320 -90 342 -96 372 -105 403 -111 15 -4 27 -10
27 -14 0 -7 -412 -268 -1010 -640 -124 -77 -747 -467 -1033 -647 -89 -56 -187
-117 -217 -136 -30 -19 -176 -109 -324 -201 l-268 -168 -56 54 c-30 29 -65 62
-77 73 -40 36 -139 128 -260 241 -66 62 -136 126 -155 144 -19 18 -87 80 -150
140 -63 59 -128 119 -145 134 -16 15 -75 70 -130 121 -55 51 -116 108 -136
126 -122 113 -248 230 -287 267 -40 38 -187 174 -286 266 -17 15 -58 54 -92
85 -33 31 -116 108 -184 171 -68 63 -158 147 -200 186 -41 39 -138 129 -215
200 -77 71 -147 136 -155 144 -8 8 -103 96 -210 195 -107 99 -204 189 -216
200 -11 11 -77 72 -144 135 -68 63 -153 143 -189 176 -37 34 -87 80 -113 104
l-47 42 37 52 c49 67 83 127 112 199 17 43 27 56 39 53 9 -3 75 -22 146 -42z
m-10655 -137 c52 -14 147 -40 210 -57 216 -59 375 -102 410 -110 19 -5 96 -25
170 -45 74 -20 158 -42 185 -50 28 -7 212 -57 410 -110 483 -130 544 -146 563
-150 9 -2 152 -41 317 -85 165 -45 356 -97 425 -115 69 -18 161 -43 205 -55
75 -20 621 -166 730 -195 28 -8 111 -30 185 -50 74 -20 169 -46 210 -56 118
-32 220 -59 280 -75 30 -9 96 -26 145 -39 50 -13 140 -37 200 -54 151 -40 347
-92 365 -97 8 -2 209 -55 445 -119 426 -115 491 -133 675 -181 96 -26 154 -41
258 -70 31 -8 64 -17 72 -19 8 -2 56 -15 105 -28 143 -39 359 -97 495 -133 69
-18 269 -72 445 -119 176 -47 327 -88 335 -90 8 -2 134 -35 280 -75 146 -39
274 -73 284 -76 10 -2 58 -14 105 -27 47 -14 122 -34 166 -46 44 -11 190 -50
325 -86 392 -105 433 -116 475 -129 l40 -13 -2 -744 c-4 -1734 -6 -1939 -17
-1939 -29 -1 -179 -71 -243 -113 -84 -56 -189 -158 -233 -226 l-32 -49 -47 27
c-25 15 -140 86 -256 158 -115 71 -232 143 -258 159 -27 16 -67 41 -90 56 -23
14 -71 44 -107 66 -36 21 -189 115 -340 209 -264 163 -877 541 -1140 703 -69
43 -249 154 -400 247 -330 204 -1383 854 -1562 964 -71 44 -185 114 -255 157
-71 44 -330 204 -578 357 -247 153 -504 311 -570 352 -66 41 -127 78 -135 83
-8 5 -85 53 -170 105 -85 52 -162 100 -170 105 -8 5 -49 30 -90 55 -41 25
-115 71 -165 102 -49 30 -102 63 -117 72 -15 9 -55 34 -90 55 -35 22 -243 151
-463 286 -220 136 -487 300 -593 366 -106 65 -232 143 -280 173 -48 29 -107
66 -132 82 -25 16 -53 32 -62 35 -10 4 -18 10 -18 15 0 5 -4 9 -9 9 -8 0 -212
125 -1024 627 -21 13 -35 28 -32 32 5 10 23 6 165 -32z m178 -296 c213 -131
473 -291 577 -356 105 -65 217 -134 250 -154 237 -145 646 -398 675 -416 19
-13 325 -202 680 -421 355 -218 695 -428 755 -465 61 -37 162 -100 225 -138
63 -39 168 -104 232 -144 65 -39 344 -211 620 -381 277 -171 514 -318 528
-327 23 -16 506 -314 568 -350 15 -9 131 -81 257 -159 300 -186 765 -472 787
-485 10 -5 73 -44 140 -86 167 -104 688 -425 1378 -851 316 -195 631 -389 700
-432 151 -93 130 -80 270 -167 63 -39 117 -73 118 -74 2 -2 -8 -36 -21 -77
-14 -40 -29 -91 -33 -113 -3 -22 -8 -49 -11 -60 -2 -11 -3 -64 -4 -117 0 -86
21 -216 46 -279 7 -18 30 -2 -380 -257 -170 -107 -472 -295 -670 -419 -198
-124 -576 -360 -840 -525 -264 -166 -500 -314 -524 -330 -25 -15 -48 -27 -51
-26 -4 2 -67 73 -141 158 -73 85 -136 157 -139 160 -3 3 -30 34 -60 70 -30 36
-67 78 -81 95 -29 32 -144 166 -221 256 -25 30 -54 63 -65 75 -42 48 -139 161
-503 584 -384 445 -468 543 -565 655 -49 56 -136 157 -720 835 -472 548 -576
669 -590 684 -6 6 -106 124 -224 261 -118 138 -231 268 -250 291 -20 22 -61
69 -91 104 -30 35 -75 87 -99 115 -24 27 -53 61 -65 75 -87 102 -202 236 -206
240 -3 3 -32 37 -65 75 -33 39 -93 108 -134 155 -40 47 -83 96 -95 110 -79 94
-134 157 -151 176 -11 11 -31 34 -44 50 -14 16 -56 65 -94 109 -38 44 -79 91
-91 105 -83 97 -513 597 -521 606 -14 16 -132 152 -219 254 -41 48 -211 245
-221 256 -5 6 -30 35 -55 64 -25 29 -50 58 -55 64 -6 6 -107 124 -225 261
-117 138 -232 270 -254 295 -23 25 -52 59 -66 76 -42 50 -205 239 -210 244 -3
3 -30 34 -60 70 -30 36 -72 83 -92 105 -21 22 -38 46 -38 54 0 13 37 61 47 61
2 0 178 -107 391 -239z m-481 85 c10 -13 85 -102 168 -198 82 -95 161 -186
175 -202 14 -17 39 -46 56 -65 78 -89 122 -139 291 -336 99 -115 211 -246 249
-290 38 -44 139 -161 224 -260 85 -99 157 -182 160 -185 5 -5 116 -133 349
-405 57 -66 114 -132 127 -148 14 -15 95 -109 181 -210 86 -100 173 -200 192
-223 50 -56 84 -95 149 -172 31 -37 61 -72 67 -78 5 -6 33 -38 61 -70 98 -114
450 -522 499 -579 28 -33 97 -114 155 -180 204 -237 369 -428 719 -834 25 -30
51 -59 56 -65 6 -6 91 -105 190 -221 99 -115 182 -212 185 -215 6 -5 183 -210
535 -620 121 -140 250 -291 289 -335 38 -44 134 -156 215 -250 80 -93 148
-172 151 -175 3 -3 35 -39 71 -81 56 -66 317 -370 389 -453 14 -16 32 -37 40
-46 8 -8 53 -60 100 -115 46 -55 102 -120 125 -145 22 -25 63 -72 90 -104 28
-32 132 -154 232 -270 101 -116 183 -213 183 -216 0 -4 -213 -139 -299 -190
-14 -8 -28 -18 -31 -21 -3 -3 -10 -8 -15 -10 -6 -2 -75 -44 -153 -94 -79 -49
-158 -99 -176 -110 -18 -11 -86 -54 -152 -95 -65 -41 -127 -79 -136 -85 -10
-5 -88 -54 -173 -107 -146 -92 -185 -111 -185 -89 0 17 -92 111 -154 157 -102
77 -242 139 -366 163 -80 15 -293 7 -365 -14 -33 -9 -66 -18 -73 -19 -7 0 -30
31 -51 69 -37 68 -493 914 -573 1065 -23 41 -48 89 -58 105 -10 17 -39 71 -65
120 -26 50 -60 114 -76 143 -65 118 -88 161 -134 247 -27 50 -74 139 -107 198
-32 60 -81 152 -110 205 -28 53 -71 132 -95 174 -23 43 -43 79 -43 82 0 2 -17
35 -38 73 -22 37 -59 106 -84 153 -25 47 -63 117 -83 155 -55 103 -233 432
-265 490 -15 28 -48 88 -72 135 -25 47 -57 105 -70 130 -14 25 -60 110 -103
190 -73 136 -96 179 -179 333 -50 93 -233 433 -272 505 -47 86 -102 188 -134
247 -15 28 -46 86 -70 130 -55 104 -106 198 -140 260 -15 28 -46 86 -70 130
-24 44 -55 103 -70 130 -15 28 -46 86 -70 130 -24 44 -55 103 -71 131 -15 28
-45 84 -67 125 -21 41 -56 106 -77 144 -21 39 -64 120 -97 180 -32 61 -64 119
-70 130 -6 11 -27 49 -46 85 -19 36 -77 142 -127 235 -51 94 -116 215 -145
270 -29 55 -61 114 -70 130 -10 17 -37 66 -60 110 -23 44 -55 103 -70 130 -35
65 -87 161 -137 255 -22 41 -55 102 -73 135 -18 33 -49 92 -70 130 -21 39 -49
90 -62 115 -14 25 -41 74 -60 110 -19 36 -56 104 -81 151 -44 80 -46 86 -30
102 23 22 28 22 50 -7z m10610 -18 c25 -24 53 -50 62 -59 13 -13 179 -167 369
-344 24 -22 63 -58 87 -80 23 -22 88 -83 145 -135 56 -52 119 -111 140 -130
21 -19 84 -78 140 -130 56 -52 119 -111 140 -130 20 -19 84 -78 140 -130 56
-52 119 -111 140 -130 54 -50 257 -240 294 -274 17 -15 58 -53 92 -85 133
-124 301 -280 330 -307 121 -111 264 -245 295 -274 20 -19 86 -80 145 -135 60
-55 134 -123 164 -152 30 -28 69 -64 86 -80 16 -15 86 -80 154 -143 67 -63
128 -119 134 -125 6 -5 72 -67 146 -136 74 -69 145 -135 158 -146 l24 -21 -44
-29 c-38 -26 -357 -226 -443 -278 -18 -11 -412 -258 -876 -548 -464 -291
-1101 -690 -1415 -886 l-572 -358 -38 37 c-98 92 -261 178 -385 204 -32 6 -61
14 -64 18 -8 8 -7 370 10 3663 2 512 5 980 5 1042 l0 112 43 12 c96 25 271
122 321 178 11 11 21 21 23 21 2 0 25 -19 50 -42z m-10967 -167 c0 -5 17 -40
38 -78 22 -37 64 -115 94 -173 30 -58 96 -179 145 -270 50 -91 112 -205 138
-255 52 -97 157 -293 210 -390 61 -112 92 -170 140 -260 26 -49 91 -169 143
-265 115 -213 147 -273 199 -370 23 -41 55 -102 73 -135 18 -33 51 -94 73
-135 22 -41 66 -122 97 -180 31 -58 76 -141 100 -185 24 -44 55 -102 70 -130
15 -27 49 -90 75 -140 26 -49 56 -103 65 -120 10 -16 41 -75 70 -130 29 -55
56 -104 60 -110 4 -5 35 -62 68 -127 34 -64 84 -158 112 -208 28 -51 55 -99
59 -109 9 -19 18 -35 81 -151 26 -47 73 -134 105 -195 32 -60 61 -114 65 -120
4 -5 38 -68 75 -140 37 -71 71 -134 75 -140 4 -5 29 -50 55 -100 47 -89 216
-402 281 -522 34 -63 74 -137 138 -255 18 -35 76 -142 128 -238 52 -96 119
-220 148 -275 29 -55 79 -147 110 -205 31 -58 76 -141 100 -185 23 -44 57
-107 75 -140 18 -33 49 -91 70 -130 21 -38 48 -88 60 -110 12 -22 42 -76 65
-120 24 -44 56 -105 73 -135 16 -30 54 -102 85 -160 30 -58 58 -109 62 -115 4
-5 34 -59 65 -120 32 -60 65 -123 75 -140 9 -16 34 -61 55 -100 21 -38 52 -97
70 -130 18 -33 50 -94 72 -135 22 -41 52 -95 65 -120 14 -25 46 -85 73 -135
26 -49 59 -109 72 -133 l23 -43 -37 -40 c-21 -22 -51 -60 -68 -84 l-31 -43
-50 25 c-69 35 -435 223 -579 298 -66 34 -201 104 -300 155 -99 51 -229 118
-290 150 -60 32 -191 99 -290 150 -184 94 -381 196 -630 325 -440 228 -631
327 -930 480 -93 48 -219 113 -280 145 -60 32 -191 99 -290 150 -610 314 -798
411 -810 421 -7 5 -10 1036 -10 3060 l0 3054 55 11 c71 15 90 16 90 5z m-114
-6240 c5 -5 90 -50 189 -101 99 -51 239 -123 310 -160 130 -67 325 -168 610
-315 83 -43 213 -110 290 -150 77 -40 230 -119 340 -175 110 -57 250 -129 310
-160 61 -32 182 -95 270 -140 88 -45 228 -117 310 -160 83 -43 231 -119 330
-170 99 -51 234 -121 300 -155 66 -34 194 -101 285 -148 91 -46 230 -118 310
-159 80 -42 231 -119 335 -173 105 -54 191 -99 193 -100 1 -1 -7 -23 -18 -48
-33 -74 -61 -204 -64 -293 -1 -46 -6 -88 -11 -93 -6 -5 -63 -12 -127 -15 -65
-4 -137 -9 -160 -11 -46 -4 -196 -14 -318 -20 -41 -3 -104 -7 -140 -10 -36 -2
-110 -7 -165 -11 -55 -3 -120 -8 -145 -9 -25 -2 -92 -6 -150 -9 -58 -4 -127
-8 -155 -11 -27 -2 -99 -7 -160 -10 -60 -4 -130 -8 -155 -10 -25 -2 -94 -7
-155 -10 -60 -3 -126 -8 -145 -10 -19 -2 -84 -7 -145 -10 -60 -4 -132 -8 -160
-10 -27 -2 -95 -6 -150 -9 -55 -4 -127 -8 -160 -11 -33 -2 -100 -7 -150 -10
-49 -3 -117 -8 -150 -10 -33 -3 -103 -7 -155 -10 -52 -3 -122 -7 -155 -10 -33
-2 -100 -7 -150 -10 -49 -3 -125 -8 -167 -11 -78 -5 -147 -10 -293 -19 -44 -2
-109 -7 -145 -9 -36 -3 -108 -8 -160 -11 -52 -3 -119 -8 -147 -10 -36 -3 -53
0 -54 8 -4 31 -5 2973 -2 2980 5 10 17 9 29 -2z m9914 -53 c80 -75 196 -144
307 -183 l52 -18 -4 -790 c-3 -434 -6 -791 -7 -793 -5 -4 -22 -7 -363 -69 -38
-7 -96 -18 -330 -61 -104 -19 -228 -42 -275 -50 -47 -8 -95 -17 -107 -20 -13
-2 -33 -6 -45 -8 -13 -3 -61 -12 -108 -20 -47 -8 -96 -18 -110 -20 -13 -3 -42
-8 -65 -11 -22 -4 -56 -10 -75 -15 -19 -5 -51 -11 -70 -14 -19 -3 -123 -21
-230 -41 -107 -20 -217 -40 -245 -45 -48 -8 -208 -38 -250 -46 -11 -2 -33 -7
-50 -9 -31 -6 -186 -34 -220 -41 -10 -2 -37 -6 -59 -10 -22 -3 -43 -7 -46 -9
-3 -2 -26 -6 -51 -9 -25 -3 -52 -7 -60 -10 -7 -3 -30 -7 -49 -10 -19 -3 -46
-8 -60 -11 -14 -3 -126 -23 -250 -46 -124 -23 -234 -43 -245 -45 -11 -2 -45
-8 -75 -14 -30 -6 -66 -12 -80 -15 -13 -3 -40 -7 -60 -10 -46 -7 -77 -13 -98
-19 -9 -3 -35 -7 -57 -10 -22 -4 -51 -8 -65 -11 -46 -10 -75 -15 -160 -30 -47
-8 -96 -17 -110 -20 -102 -20 -184 -35 -185 -33 -2 2 -6 32 -9 68 -4 36 -9 72
-12 81 -3 12 141 107 608 399 337 211 638 399 668 418 30 19 69 44 85 54 70
44 673 421 935 584 157 98 314 197 350 219 84 54 532 335 568 356 15 9 171
107 347 217 176 111 322 202 325 202 3 0 21 -15 40 -32z m10327 -587 c13 -47
39 -116 58 -155 l34 -70 -67 -76 c-78 -87 -75 -84 -127 -141 -22 -24 -58 -64
-79 -89 -22 -25 -72 -81 -111 -125 -40 -44 -170 -190 -290 -325 -120 -135
-234 -263 -254 -285 -20 -22 -146 -164 -281 -315 -134 -151 -261 -293 -281
-315 -20 -22 -114 -128 -209 -235 -96 -107 -190 -212 -210 -233 l-37 -39 -59
31 c-60 31 -158 68 -204 76 -14 3 -36 7 -50 10 -49 11 -196 13 -250 4 -30 -5
-69 -11 -87 -14 -46 -7 -160 -51 -220 -85 -29 -17 -57 -30 -63 -30 -6 0 -56
35 -113 78 -56 43 -196 150 -312 238 -115 89 -264 202 -330 252 -170 130 -264
202 -650 496 -187 143 -367 280 -400 306 -203 156 -652 499 -678 517 -18 12
-39 28 -47 36 -8 7 -109 84 -223 171 l-208 158 17 26 c29 44 94 164 94 174 0
5 4 18 10 28 10 18 87 19 2806 17 l2796 -2 25 -84z m-5931 -451 c44 -32 84
-63 89 -67 6 -5 343 -262 750 -573 407 -310 770 -587 806 -615 l67 -52 -180
-309 c-99 -170 -190 -325 -200 -344 -17 -29 -66 -113 -123 -212 -137 -236
-209 -361 -345 -593 -89 -154 -174 -300 -188 -325 -13 -25 -28 -49 -32 -55 -4
-5 -17 -26 -27 -45 -11 -19 -68 -118 -128 -220 -59 -102 -115 -198 -125 -215
-45 -78 -326 -561 -485 -835 -98 -168 -185 -318 -195 -335 -30 -53 -121 -210
-130 -225 -22 -35 -127 -216 -133 -230 -4 -8 -13 -24 -20 -35 -34 -58 -236
-404 -492 -845 -158 -272 -313 -538 -344 -590 -59 -101 -86 -147 -126 -220
-14 -25 -34 -58 -44 -75 -10 -16 -30 -52 -45 -80 -16 -27 -37 -62 -47 -77 -11
-14 -19 -29 -19 -32 0 -3 -20 -38 -44 -78 -36 -61 -204 -350 -539 -928 -33
-58 -82 -141 -108 -185 -26 -44 -56 -96 -67 -115 -11 -19 -75 -129 -142 -245
-68 -115 -132 -226 -143 -245 -21 -38 -182 -316 -196 -340 -5 -8 -98 -168
-207 -355 -109 -187 -236 -405 -282 -485 -46 -80 -95 -164 -109 -188 -52 -92
-94 -156 -87 -132 7 25 41 151 48 180 3 8 16 58 30 110 14 52 37 140 51 195
49 188 63 240 83 315 12 41 41 152 66 245 24 94 86 325 136 515 50 190 109
410 130 490 21 80 50 188 64 240 46 176 167 634 186 705 10 39 46 174 80 300
34 127 63 237 65 245 2 9 26 103 55 210 29 107 53 201 55 210 2 8 15 56 28
105 14 50 40 144 57 210 18 66 42 161 55 210 13 50 31 117 40 150 9 33 50 188
91 345 42 157 109 411 151 565 41 154 76 288 78 299 3 10 27 104 55 208 28
104 60 222 70 261 10 40 40 151 65 247 26 96 48 182 50 190 2 8 17 65 33 125
80 299 136 509 157 590 38 143 71 269 161 610 47 176 123 464 170 640 46 176
91 343 99 370 17 61 55 204 60 225 13 56 308 1171 320 1207 3 8 25 4 75 -13
205 -69 441 -58 630 30 30 14 58 26 61 26 4 0 42 -27 85 -60z m6389 -94 c39
-18 78 -36 88 -39 16 -6 17 -110 17 -1985 l0 -1978 -32 -2 c-81 -6 -255 -68
-320 -114 -16 -11 -33 -16 -40 -12 -11 7 -384 290 -643 489 -75 58 -748 571
-935 713 -47 36 -86 66 -88 67 -2 2 4 29 13 61 9 33 19 115 22 184 4 105 2
139 -15 210 -27 111 -54 183 -96 253 l-34 56 146 163 c79 90 177 199 216 243
108 121 160 179 166 185 3 3 37 41 75 84 39 44 77 87 85 96 37 40 101 112 165
185 38 44 72 82 75 85 3 3 43 48 90 100 47 52 99 111 116 130 18 19 130 145
250 280 120 135 223 250 228 256 6 6 38 42 71 79 33 38 71 80 84 94 72 79 147
165 154 178 7 12 14 10 40 -7 18 -12 64 -36 102 -54z m-10441 -2074 c-7 -1617
-12 -2633 -13 -2650 -1 -8 -13 -4 -34 12 -19 15 -39 26 -45 26 -6 0 -12 3 -14
8 -1 4 -30 24 -62 46 -33 21 -64 43 -70 48 -6 5 -83 57 -171 116 -214 144
-447 302 -1240 839 -115 78 -293 198 -395 267 -102 68 -315 213 -475 321 -159
108 -380 257 -490 331 -110 75 -281 190 -380 257 -99 67 -297 201 -440 298
-358 242 -489 331 -494 335 -1 1 6 29 18 62 11 33 22 72 25 86 3 14 7 34 10
44 3 9 7 35 11 56 3 22 7 42 10 44 2 2 37 10 77 17 40 7 135 25 210 39 76 14
155 29 175 32 21 3 56 9 78 14 22 5 56 12 75 15 19 3 73 13 120 21 47 9 96 18
110 20 14 3 59 11 100 19 41 8 91 17 110 21 42 7 138 24 325 59 77 14 149 28
160 29 32 6 86 16 140 26 28 5 64 12 80 15 17 2 104 18 195 35 91 17 178 33
195 36 16 3 90 16 165 30 124 23 195 36 275 50 17 3 89 17 160 30 72 14 143
27 159 29 15 3 35 7 45 9 9 3 39 8 66 12 28 3 53 8 56 10 3 1 59 12 125 23 65
12 128 23 139 25 97 19 264 50 415 77 63 11 133 24 155 29 22 5 60 12 85 15
25 3 83 14 130 23 47 10 95 19 108 20 l23 2 -7 -1328z m5886 768 c3 -3 59 -45
125 -95 66 -49 126 -95 135 -102 16 -13 360 -275 638 -487 l170 -130 -38 -71
c-86 -161 -117 -386 -79 -561 7 -32 13 -61 14 -64 12 -57 74 -186 121 -253 19
-26 34 -49 34 -51 0 -2 -12 -17 -27 -34 -16 -16 -57 -62 -93 -102 -36 -41 -69
-78 -75 -84 -5 -6 -44 -49 -85 -96 -41 -47 -79 -90 -85 -96 -5 -6 -41 -46 -80
-89 -68 -77 -217 -243 -281 -315 -18 -19 -148 -165 -289 -325 -142 -159 -290
-326 -330 -370 -40 -44 -94 -105 -121 -135 -26 -30 -53 -60 -58 -66 -17 -17
-139 -155 -177 -199 -19 -22 -43 -49 -54 -60 -11 -11 -51 -56 -89 -100 -39
-44 -75 -85 -80 -90 -6 -6 -42 -46 -81 -90 -38 -44 -79 -89 -90 -101 -22 -23
-138 -153 -168 -188 -37 -43 -133 -151 -178 -200 -25 -28 -108 -121 -183 -206
-76 -85 -152 -171 -170 -190 -17 -19 -67 -75 -111 -125 -44 -49 -82 -92 -85
-95 -3 -3 -41 -45 -85 -95 -44 -49 -82 -92 -85 -95 -3 -3 -59 -66 -124 -140
-66 -74 -127 -142 -135 -151 -9 -9 -29 -31 -46 -50 -215 -244 -342 -387 -354
-400 -9 -9 -29 -31 -46 -50 -68 -77 -200 -225 -209 -235 -11 -11 -70 -78 -236
-264 -51 -58 -107 -121 -124 -140 -18 -19 -126 -141 -241 -270 -115 -129 -212
-237 -215 -240 -3 -3 -36 -41 -75 -85 -77 -88 -75 -86 -125 -141 -44 -47 -113
-125 -200 -224 -36 -40 -70 -78 -75 -84 -6 -6 -84 -94 -175 -196 -90 -102
-179 -201 -196 -220 -18 -19 -41 -44 -51 -56 -35 -41 -138 -157 -158 -178 -11
-12 -51 -57 -90 -101 -84 -95 -110 -124 -169 -190 -25 -27 -85 -96 -133 -152
-92 -106 -129 -138 -89 -75 14 20 74 123 134 227 60 105 151 262 202 350 51
88 101 174 110 190 10 17 138 237 285 490 147 253 349 600 448 770 99 171 226
389 282 485 93 158 413 712 455 785 10 17 91 156 180 310 90 154 239 411 331
570 93 160 173 295 179 302 5 7 10 15 10 17 0 3 26 50 58 103 32 54 61 105 65
113 4 8 11 22 17 30 12 18 117 198 152 260 14 25 113 196 220 380 337 579 671
1154 682 1175 6 11 16 27 22 35 6 8 25 40 41 70 17 30 70 123 118 205 48 83
96 164 106 182 10 17 29 50 43 72 15 22 26 43 26 45 0 5 20 40 125 216 18 30
42 71 52 90 11 19 101 175 200 345 99 171 294 506 433 745 139 239 259 446
267 458 14 23 15 23 36 5 12 -10 24 -20 27 -23z m-11820 -358 c7 -30 25 -87
41 -126 16 -38 27 -71 26 -72 -1 -1 -119 -74 -262 -164 -143 -89 -276 -172
-295 -185 -19 -12 -84 -53 -145 -90 -60 -38 -143 -89 -183 -114 -40 -25 -114
-72 -165 -103 -50 -32 -99 -62 -107 -68 -13 -9 -1258 -788 -1892 -1184 -123
-77 -245 -154 -273 -171 -27 -18 -142 -90 -255 -160 -113 -70 -221 -137 -240
-149 -19 -13 -78 -50 -132 -83 l-96 -61 -39 35 c-77 72 -205 148 -290 173 -23
7 -43 20 -45 29 -3 14 -3 2192 1 2247 0 11 7 21 14 21 45 1 281 15 299 18 13
2 77 6 143 10 66 3 136 8 155 10 19 2 87 6 150 10 63 4 135 8 160 10 25 1 99
6 165 9 66 4 131 9 145 11 14 2 79 6 145 10 66 4 140 8 165 10 25 1 90 6 145
9 55 4 127 9 160 11 33 3 103 7 155 10 52 3 118 7 145 10 28 2 97 7 155 10 58
3 125 8 150 10 25 2 99 7 165 11 66 3 136 8 155 9 19 1 87 5 150 9 63 4 131 9
150 11 19 2 85 7 145 10 61 4 133 8 160 10 28 1 97 6 155 9 58 4 125 9 150 11
25 2 97 7 160 10 63 4 131 8 151 10 20 2 85 7 145 10 60 3 109 7 111 8 1 1 21
3 46 4 l44 1 13 -56z m1690 -317 c58 -39 204 -138 325 -220 121 -82 283 -191
360 -244 77 -52 223 -151 325 -219 260 -176 508 -344 586 -397 36 -25 69 -45
74 -45 4 0 10 -4 12 -8 2 -4 120 -87 263 -183 143 -97 359 -243 480 -325 393
-266 635 -429 890 -601 138 -92 255 -171 260 -176 13 -10 139 -95 415 -280
124 -83 229 -154 233 -158 5 -3 8 -166 7 -360 -1 -403 -7 -1744 -14 -3189 -3
-542 -6 -1225 -7 -1517 -2 -516 -3 -533 -21 -533 -11 0 -29 -5 -40 -11 -17 -9
-23 -8 -32 7 -13 21 -67 120 -133 244 -25 47 -91 168 -146 270 -55 102 -117
217 -137 255 -21 39 -52 97 -70 130 -18 33 -48 89 -68 125 -19 36 -47 88 -62
115 -15 28 -46 86 -70 130 -24 44 -55 103 -70 130 -15 28 -45 84 -67 125 -23
41 -87 161 -143 265 -56 105 -119 222 -140 260 -21 39 -83 153 -137 255 -55
102 -124 230 -153 285 -29 55 -56 105 -60 110 -4 6 -29 51 -55 100 -26 50 -74
137 -105 195 -31 58 -81 150 -110 205 -29 55 -65 123 -80 150 -62 113 -113
208 -270 500 -24 44 -69 127 -100 185 -32 58 -74 137 -95 175 -77 144 -119
221 -145 270 -15 28 -49 91 -75 140 -26 50 -56 104 -65 120 -10 17 -43 80 -75
140 -32 61 -61 115 -65 120 -4 6 -35 64 -70 130 -35 66 -66 125 -70 130 -4 6
-29 51 -55 100 -96 181 -128 241 -145 270 -9 17 -38 68 -63 115 -70 133 -117
221 -147 275 -15 28 -53 100 -85 160 -32 61 -61 115 -65 120 -4 6 -29 51 -55
100 -26 50 -63 117 -80 150 -56 102 -365 675 -413 765 -25 47 -62 116 -84 153
-21 38 -38 70 -38 73 0 2 -40 77 -89 166 -48 90 -110 204 -136 253 -27 50 -67
124 -89 165 -95 174 -94 169 -71 186 42 30 137 131 172 181 20 30 41 50 47 46
6 -4 58 -39 116 -78z m-1333 -189 c105 -67 193 -103 311 -126 34 -7 62 -18 62
-24 0 -6 -27 -128 -61 -271 -33 -143 -62 -269 -64 -280 -3 -11 -9 -38 -15 -60
-5 -22 -51 -218 -100 -435 -50 -217 -107 -462 -126 -545 -20 -82 -38 -159 -40
-170 -2 -11 -37 -166 -79 -345 -41 -179 -84 -365 -95 -415 -11 -49 -25 -106
-31 -125 -5 -19 -27 -114 -49 -210 -22 -96 -51 -224 -65 -285 -14 -60 -33
-141 -41 -180 -8 -38 -20 -88 -26 -110 -5 -22 -12 -47 -13 -55 -2 -8 -20 -87
-41 -175 -20 -88 -42 -185 -49 -215 -7 -30 -26 -114 -43 -187 -17 -72 -33
-142 -36 -155 -2 -13 -28 -122 -56 -243 -28 -121 -53 -227 -55 -235 -11 -51
-47 -207 -50 -217 -3 -8 -55 18 -142 71 -76 47 -196 119 -268 162 -71 43 -195
118 -275 166 -80 49 -152 93 -160 98 -8 5 -62 38 -120 73 -202 123 -445 270
-472 286 -22 13 -1105 671 -1248 758 -19 12 -46 28 -60 36 -14 7 -119 71 -235
142 -115 71 -221 134 -235 142 -81 45 -145 91 -142 104 14 58 22 135 22 199
-1 41 -1 84 -1 95 0 11 -11 65 -25 119 -13 55 -21 102 -17 106 4 4 112 71 238
150 230 143 252 157 355 223 30 19 165 103 300 187 135 84 407 254 605 378
198 123 376 234 395 247 19 12 109 69 200 125 91 57 188 118 215 135 28 18
118 74 200 125 83 51 161 100 175 109 14 10 309 194 655 411 347 216 653 408
680 426 28 18 51 33 52 34 1 0 33 -20 70 -44z m726 -231 c30 -55 72 -134 94
-175 45 -85 110 -206 210 -390 55 -100 110 -204 146 -272 20 -37 47 -87 60
-110 13 -24 45 -81 69 -128 25 -47 57 -105 70 -130 25 -45 59 -109 135 -250
22 -41 89 -165 148 -275 156 -290 157 -292 210 -390 26 -49 60 -112 75 -140
33 -60 73 -133 130 -240 24 -44 55 -102 70 -130 15 -27 47 -86 70 -130 23 -44
85 -159 138 -255 52 -96 113 -209 135 -250 63 -118 108 -201 137 -255 40 -73
146 -270 210 -390 24 -44 57 -107 75 -140 18 -33 48 -89 67 -125 20 -36 61
-111 92 -168 31 -56 56 -105 56 -107 0 -2 15 -30 34 -62 18 -32 55 -98 81
-148 49 -92 97 -181 145 -270 15 -27 47 -86 70 -130 23 -44 55 -102 70 -130
15 -27 47 -86 70 -130 48 -89 66 -123 202 -375 52 -96 115 -213 140 -260 25
-47 57 -105 70 -130 14 -25 44 -81 68 -125 23 -44 57 -107 75 -140 56 -103
101 -187 145 -270 23 -44 53 -98 65 -120 12 -22 39 -70 59 -108 20 -37 51 -95
70 -130 18 -34 66 -123 106 -197 40 -74 85 -157 100 -185 15 -27 77 -142 137
-255 61 -113 122 -225 135 -250 14 -25 62 -113 106 -196 l82 -151 -67 -71 -68
-70 -190 115 c-104 64 -284 173 -400 243 -115 70 -316 192 -445 270 -129 79
-287 174 -350 212 -63 38 -209 127 -325 197 -115 70 -338 206 -495 301 -157
95 -316 193 -355 216 -65 40 -154 93 -200 120 -11 6 -93 56 -182 110 -214 131
-503 306 -525 319 -54 32 -132 79 -388 235 -157 95 -409 248 -560 340 -387
235 -740 449 -775 471 -16 10 -37 22 -45 26 -8 4 -67 39 -130 78 -63 39 -165
102 -226 139 -83 49 -111 71 -108 84 4 17 89 389 145 632 28 123 76 330 84
360 2 8 11 49 20 90 9 41 18 82 20 90 2 8 15 62 29 120 13 58 27 116 30 130 2
14 16 75 31 135 27 115 40 168 75 325 20 89 30 131 36 155 1 6 19 82 39 170
20 88 40 176 46 195 5 19 41 175 80 345 39 171 80 346 90 390 10 44 34 149 54
233 78 338 106 458 164 709 33 144 62 272 65 285 3 12 21 91 40 173 20 83 38
159 40 170 19 89 58 251 62 254 2 3 32 6 67 8 34 2 76 7 92 12 17 4 33 6 37 2
3 -3 31 -51 61 -106z m13531 -1036 c193 -148 356 -272 361 -276 6 -5 201 -154
435 -332 234 -178 428 -326 432 -330 4 -4 -12 -46 -37 -95 -96 -192 -117 -447
-50 -636 8 -23 15 -44 15 -45 0 -3 -73 -49 -390 -245 -113 -70 -356 -221 -540
-335 -617 -383 -623 -386 -618 -367 2 6 -10 106 -17 142 -1 8 -8 56 -14 105
-7 50 -14 101 -16 115 -2 14 -9 61 -15 106 -6 44 -13 91 -15 105 -3 13 -7 43
-10 66 -7 63 -34 260 -45 333 -5 36 -12 81 -14 100 -5 40 -26 195 -31 225 -1
11 -10 74 -19 140 -10 66 -19 131 -21 145 -2 14 -7 45 -10 70 -3 25 -8 56 -10
70 -12 82 -15 110 -20 155 -3 28 -10 73 -15 100 -5 28 -12 73 -15 100 -8 63
-13 104 -25 185 -5 36 -12 85 -15 110 -4 25 -8 56 -10 70 -2 14 -9 63 -15 110
-6 47 -14 100 -16 118 -4 25 -2 32 11 32 29 0 180 76 241 121 33 23 77 60 99
80 21 21 43 35 49 32 5 -4 167 -127 360 -274z m-1352 73 l48 -21 -19 -48 c-10
-26 -35 -91 -56 -143 -20 -52 -40 -104 -45 -115 -6 -11 -89 -220 -186 -465
-97 -245 -232 -587 -301 -760 -68 -173 -145 -367 -170 -430 -24 -63 -49 -124
-54 -135 -4 -11 -52 -130 -104 -265 -53 -135 -101 -254 -106 -265 -4 -11 -36
-90 -70 -175 -33 -85 -104 -263 -156 -395 -52 -132 -126 -319 -165 -415 -38
-96 -73 -184 -78 -195 -5 -11 -43 -108 -85 -215 -42 -107 -82 -208 -89 -225
-8 -16 -19 -47 -25 -67 -13 -38 -55 -82 -91 -93 -11 -3 -20 -11 -20 -16 0 -5
-4 -9 -9 -9 -5 0 -118 -68 -252 -151 -134 -83 -415 -257 -624 -386 -209 -129
-396 -245 -415 -258 -32 -21 -290 -180 -660 -408 -80 -49 -161 -99 -180 -112
-29 -19 -807 -501 -2145 -1329 -115 -71 -244 -150 -285 -176 -41 -26 -99 -61
-128 -80 -29 -18 -57 -29 -60 -24 -4 5 -20 23 -35 40 -26 29 -26 31 -9 50 9
10 89 100 176 199 88 99 167 187 175 196 9 9 41 44 71 79 30 34 66 75 80 90
14 15 39 43 55 61 60 68 190 214 195 219 3 3 41 45 85 95 44 49 96 108 115
129 19 22 42 47 50 56 8 9 30 34 49 55 19 22 69 78 111 125 42 47 110 123 151
170 41 47 79 90 85 95 6 6 84 93 175 195 90 102 166 187 169 190 5 5 110 123
185 209 17 18 35 39 40 45 11 11 152 169 210 235 16 19 39 44 50 55 11 12 49
55 85 96 36 41 72 81 80 90 8 9 47 52 85 95 39 43 79 89 90 101 11 12 43 49
72 81 29 33 65 73 80 90 15 17 57 63 93 104 36 40 74 83 85 95 11 12 47 53 80
90 33 38 67 75 75 84 8 9 47 51 85 95 39 43 77 86 85 95 8 9 31 34 50 56 35
41 155 176 199 223 12 14 51 57 85 96 33 38 102 115 151 170 50 55 126 141
170 190 43 50 86 97 95 106 8 8 38 42 65 73 28 32 64 73 80 91 17 18 59 65 95
106 36 41 85 96 110 124 25 27 50 55 55 61 6 6 26 29 45 50 19 22 89 100 155
174 66 74 122 137 125 140 3 3 39 43 80 90 41 47 81 92 90 101 8 8 42 46 75
84 33 38 71 80 84 94 12 14 51 57 85 95 33 38 66 74 71 80 6 6 61 70 124 141
63 72 124 139 135 151 12 11 48 52 81 90 78 89 157 178 164 184 3 3 35 39 71
80 36 41 70 80 76 85 6 6 44 48 85 95 41 47 77 87 80 90 5 4 231 258 284 319
11 12 29 33 40 45 91 101 162 181 175 197 8 10 17 17 20 16 3 -2 26 -13 52
-25z m370 -67 c89 0 137 -3 136 -10 -1 -5 1 -28 5 -50 4 -22 9 -58 12 -80 2
-22 10 -74 15 -115 6 -41 13 -95 16 -120 3 -25 7 -52 9 -60 2 -8 7 -40 10 -70
3 -30 8 -66 10 -80 8 -41 13 -81 25 -170 6 -47 13 -98 16 -115 7 -50 64 -457
70 -500 3 -22 7 -52 10 -66 2 -15 6 -47 9 -70 3 -24 7 -55 10 -69 3 -14 7 -47
10 -75 3 -27 7 -59 9 -71 2 -12 7 -45 11 -74 4 -29 8 -62 11 -73 2 -10 6 -45
10 -76 3 -31 8 -65 10 -75 2 -11 8 -56 14 -100 6 -45 13 -92 15 -106 2 -14 6
-47 10 -73 4 -27 8 -56 10 -65 1 -10 6 -46 10 -82 4 -36 8 -67 10 -70 2 -3 6
-30 9 -60 11 -97 16 -132 21 -141 6 -8 -83 -68 -245 -165 -25 -15 -67 -42 -95
-59 -27 -18 -336 -209 -685 -425 -349 -215 -665 -412 -702 -436 -37 -24 -71
-44 -75 -44 -3 0 -14 -6 -22 -14 -9 -8 -32 -23 -51 -34 -37 -20 -379 -232
-465 -287 -59 -38 -95 -57 -95 -51 0 5 76 198 100 256 21 47 278 697 406 1025
41 105 79 199 84 210 5 11 37 90 70 175 33 85 65 164 70 175 4 11 68 171 140
355 73 184 172 434 220 555 98 246 186 467 297 750 41 105 80 204 87 220 8 17
58 142 112 278 l98 248 51 -8 c27 -4 112 -8 187 -8z"/>
</g>
</svg>
